<svg xmlns="http://www.w3.org/2000/svg" width="64" height="64" viewBox="0 0 64 64"><g id="Layer_2" data-name="Layer 2"><g id="Layer_1-2" data-name="Layer 1"><path d="M9.71,18.71H54.29A1.71,1.71,0,0,0,56,17V12.71A1.72,1.72,0,0,0,54.29,11H9.71A1.72,1.72,0,0,0,8,12.71V17A1.71,1.71,0,0,0,9.71,18.71Zm0,17.15H54.29A1.72,1.72,0,0,0,56,34.14V29.86a1.72,1.72,0,0,0-1.71-1.72H9.71A1.72,1.72,0,0,0,8,29.86v4.28A1.72,1.72,0,0,0,9.71,35.86ZM9.71,53H54.29A1.72,1.72,0,0,0,56,51.29V47a1.71,1.71,0,0,0-1.71-1.71H9.71A1.71,1.71,0,0,0,8,47v4.29A1.72,1.72,0,0,0,9.71,53Z"/><rect width="64" height="64" fill="none"/></g></g></svg>