<svg xmlns="http://www.w3.org/2000/svg" xmlns:xlink="http://www.w3.org/1999/xlink" width="54" height="54" viewBox="0 0 54 54">
  <defs>
    <clipPath id="clip-Linkedin">
      <rect width="54" height="54"/>
    </clipPath>
  </defs>
  <g id="Linkedin" clip-path="url(#clip-Linkedin)">
    <g id="Path_9368" data-name="Path 9368" fill="none">
      <path d="M0,0H54V54H0Z" stroke="none"/>
      <path d="M 2 2 L 2 52 L 52 52 L 52 2 L 2 2 M 0 0 L 54 0 L 54 54 L 0 54 L 0 0 Z" stroke="none" fill="#fff"/>
    </g>
    <path id="Path_6389" data-name="Path 6389" d="M17.4,36.348H11.5v-17.7h5.9ZM14.452,16.012A3.272,3.272,0,1,1,17.7,12.741,3.259,3.259,0,0,1,14.452,16.012Zm23.61,20.336h-5.9V27.9c0-5.55-5.907-5.082-5.907,0v8.443h-5.9v-17.7h5.9v3.224c2.573-4.768,11.8-5.122,11.8,4.569Z" transform="translate(2.139 2.911)" fill="#fff"/>
  </g>
</svg>
